<svg width="24" height="24" viewBox="0 0 24 24" fill="none" xmlns="http://www.w3.org/2000/svg">
<path d="M4.17521 20.9999C3.82521 21.0832 3.52105 20.9957 3.26271 20.7374C3.00438 20.4791 2.91688 20.1749 3.00021 19.8249L4.00021 15.0499L8.95021 19.9999L4.17521 20.9999ZM8.95021 19.9999L4.00021 15.0499L15.4502 3.5999C15.8335 3.21657 16.3085 3.0249 16.8752 3.0249C17.4419 3.0249 17.9169 3.21657 18.3002 3.5999L20.4002 5.6999C20.7835 6.08324 20.9752 6.55824 20.9752 7.1249C20.9752 7.69157 20.7835 8.16657 20.4002 8.5499L8.95021 19.9999ZM16.8752 4.9999L6.52521 15.3499L8.65021 17.4749L19.0002 7.1249L16.8752 4.9999Z" fill="black"/>
</svg>
